<?xml version="1.0" encoding="UTF-8"?>
<svg id="Layer_2" data-name="Layer 2" xmlns="http://www.w3.org/2000/svg" viewBox="0 0 16.46 23.43">
  <defs>
    <style>
      .cls-1, .cls-2 {
        fill: #fff;
      }

      .cls-2 {
        fill-rule: evenodd;
      }
    </style>
  </defs>
  <g id="Layer_1-2" data-name="Layer 1">
    <g>
      <g>
        <path class="cls-2" d="M4.89,11.46h-1.19c-.15,0-.28-.13-.28-.28s.13-.28.28-.28h1.19c.15,0,.28.13.28.28s-.13.28-.28.28Z"/>
        <path class="cls-2" d="M5.36,13.04c.08.13.03.31-.1.38l-.48.28c-.13.08-.31.03-.38-.1-.08-.13-.03-.31.1-.38l.48-.28c.13-.08.31-.03.38.1Z"/>
        <path class="cls-2" d="M5.36,9.32c-.08.13-.25.18-.38.1l-.48-.28c-.13-.08-.18-.25-.1-.38.08-.13.25-.18.38-.1l.48.28c.13.08.18.25.1.38Z"/>
        <path class="cls-2" d="M6.82,14.78l-.28.48c-.08.13-.25.18-.38.1-.13-.08-.18-.25-.1-.38l.28-.48c.08-.13.25-.18.38-.1.13.08.18.25.1.38Z"/>
        <path class="cls-2" d="M6.82,7.57c.08.13.03.31-.1.38-.13.08-.31.03-.38-.1l-.28-.48c-.08-.13-.03-.31.1-.38.13-.08.31-.03.38.1l.28.48Z"/>
        <path class="cls-2" d="M8.3,7.49v-1.19c0-.15.13-.28.28-.28s.28.13.28.28v1.19c0,.15-.13.28-.28.28s-.28-.13-.28-.28Z"/>
        <path class="cls-2" d="M8.86,14.86v1.19c0,.15-.13.28-.28.28s-.28-.13-.28-.28v-1.19c0-.15.13-.28.28-.28s.28.13.28.28Z"/>
        <path class="cls-2" d="M10.82,13.02l-1.58-1.58c.03-.08.05-.17.05-.26,0-.29-.18-.54-.43-.65v-1.8c0-.15-.13-.28-.28-.28s-.28.13-.28.28v1.8c-.25.11-.43.36-.43.65,0,.39.32.71.71.71.09,0,.18-.02.26-.05l1.58,1.58c.11.11.29.11.4,0,.11-.11.11-.29,0-.4ZM8.58,11.33c-.08,0-.15-.07-.15-.15s.07-.15.15-.15.15.07.15.15-.07.15-.15.15Z"/>
        <path class="cls-2" d="M11.1,14.98c.08.13.03.31-.1.38-.13.08-.31.03-.38-.1l-.28-.48c-.08-.13-.03-.31.1-.38.13-.08.31-.03.38.1l.28.48Z"/>
        <path class="cls-2" d="M11.1,7.37l-.28.48c-.08.13-.25.18-.38.1-.13-.08-.18-.25-.1-.38l.28-.48c.08-.13.25-.18.38-.1.13.08.18.25.1.38Z"/>
        <path class="cls-2" d="M8.58,5.46c-3.15,0-5.71,2.56-5.71,5.72s2.56,5.71,5.71,5.71,5.72-2.56,5.72-5.71-2.56-5.72-5.72-5.72ZM8.58,16.33c-2.85,0-5.15-2.31-5.15-5.15s2.31-5.16,5.15-5.16,5.16,2.31,5.16,5.16-2.31,5.15-5.16,5.15Z"/>
        <path class="cls-2" d="M12.76,13.59c-.08.13-.25.18-.38.1l-.48-.28c-.13-.08-.18-.25-.1-.38.08-.13.25-.18.38-.1l.48.28c.13.08.18.25.1.38Z"/>
        <path class="cls-2" d="M11.8,9.32c-.08-.13-.03-.31.1-.38l.48-.28c.13-.08.31-.03.38.1.08.13.03.31-.1.38l-.48.28c-.13.08-.31.03-.38-.1Z"/>
        <path class="cls-2" d="M13.73,11.18c0,.15-.13.28-.28.28h-1.19c-.15,0-.28-.13-.28-.28s.13-.28.28-.28h1.19c.15,0,.28.13.28.28Z"/>
        <path class="cls-2" d="M16.39,13.86c-.1-.3-.31-.54-.59-.69.18-.64.27-1.3.27-2,0-4.14-3.36-7.5-7.5-7.5-3.75,0-6.86,2.76-7.41,6.36h-.03c-.3,0-.59.12-.8.33-.11.11-.19.23-.25.37-.06.14-.09.28-.09.43,0,.3.12.59.33.8.21.21.5.33.8.33h.03c.46,3.01,2.7,5.43,5.61,6.15v.3h-1.82c-.11,0-.21.06-.26.16-.05.1-.03.22.04.3l3.62,4.12c.05.06.13.1.21.1s.16-.03.21-.1l3.62-4.12c.07-.08.09-.2.04-.3-.05-.1-.14-.16-.25-.16h-1.82v-.3c1.56-.38,2.93-1.26,3.93-2.45l.06.03c.29.14.63.16.94.06.31-.11.56-.33.71-.63l.32-.67c.14-.29.16-.63.06-.94ZM1.1,11.75c-.14,0-.27-.07-.37-.17-.11-.11-.17-.25-.17-.4h0c0-.15.06-.3.17-.41.1-.1.23-.16.37-.17-.01.19-.02.38-.02.57s0,.38.02.57ZM11.58,19.31l-3,3.42-3-3.42h1.48c.15,0,.28-.13.28-.28v-.46c.4.07.82.1,1.24.1s.84-.03,1.24-.1v.46c0,.15.13.28.28.28h1.48ZM14.01,15.48s0,0,0,.01c-1.27,1.6-3.23,2.62-5.43,2.62-3.83,0-6.94-3.11-6.94-6.94s3.11-6.94,6.94-6.94,6.94,3.11,6.94,6.94c0,1.63-.56,3.12-1.5,4.31ZM15.83,14.56l-.32.67c-.08.16-.22.28-.39.34-.15.05-.32.05-.47,0,.4-.56.73-1.18.97-1.84.11.08.19.19.24.32.06.17.05.35-.03.51Z"/>
        <path class="cls-2" d="M4.89,11.46h-1.19c-.15,0-.28-.13-.28-.28s.13-.28.28-.28h1.19c.15,0,.28.13.28.28s-.13.28-.28.28Z"/>
        <path class="cls-2" d="M5.36,13.04c.08.13.03.31-.1.38l-.48.28c-.13.08-.31.03-.38-.1-.08-.13-.03-.31.1-.38l.48-.28c.13-.08.31-.03.38.1Z"/>
        <path class="cls-2" d="M5.36,9.32c-.08.13-.25.18-.38.1l-.48-.28c-.13-.08-.18-.25-.1-.38.08-.13.25-.18.38-.1l.48.28c.13.08.18.25.1.38Z"/>
        <path class="cls-2" d="M6.82,14.78l-.28.48c-.08.13-.25.18-.38.1-.13-.08-.18-.25-.1-.38l.28-.48c.08-.13.25-.18.38-.1.13.08.18.25.1.38Z"/>
        <path class="cls-2" d="M6.82,7.57c.08.13.03.31-.1.38-.13.08-.31.03-.38-.1l-.28-.48c-.08-.13-.03-.31.1-.38.13-.08.31-.03.38.1l.28.48Z"/>
        <path class="cls-2" d="M8.3,7.49v-1.19c0-.15.13-.28.28-.28s.28.13.28.28v1.19c0,.15-.13.28-.28.28s-.28-.13-.28-.28Z"/>
        <path class="cls-2" d="M8.86,14.86v1.19c0,.15-.13.28-.28.28s-.28-.13-.28-.28v-1.19c0-.15.13-.28.28-.28s.28.13.28.28Z"/>
        <path class="cls-2" d="M10.82,13.02l-1.58-1.58c.03-.08.05-.17.05-.26,0-.29-.18-.54-.43-.65v-1.8c0-.15-.13-.28-.28-.28s-.28.13-.28.28v1.8c-.25.11-.43.36-.43.65,0,.39.32.71.71.71.09,0,.18-.02.26-.05l1.58,1.58c.11.11.29.11.4,0,.11-.11.11-.29,0-.4ZM8.58,11.33c-.08,0-.15-.07-.15-.15s.07-.15.15-.15.15.07.15.15-.07.15-.15.15Z"/>
        <path class="cls-2" d="M11.1,14.98c.08.13.03.31-.1.38-.13.08-.31.03-.38-.1l-.28-.48c-.08-.13-.03-.31.1-.38.13-.08.31-.03.38.1l.28.48Z"/>
        <path class="cls-2" d="M11.1,7.37l-.28.48c-.08.13-.25.18-.38.1-.13-.08-.18-.25-.1-.38l.28-.48c.08-.13.25-.18.38-.1.13.08.18.25.1.38Z"/>
        <path class="cls-2" d="M8.58,5.46c-3.15,0-5.71,2.56-5.71,5.72s2.56,5.71,5.71,5.71,5.72-2.56,5.72-5.71-2.56-5.72-5.72-5.72ZM8.58,16.33c-2.85,0-5.15-2.31-5.15-5.15s2.31-5.16,5.15-5.16,5.16,2.31,5.16,5.16-2.31,5.15-5.16,5.15Z"/>
        <path class="cls-2" d="M12.76,13.59c-.08.13-.25.18-.38.1l-.48-.28c-.13-.08-.18-.25-.1-.38.08-.13.25-.18.38-.1l.48.28c.13.08.18.25.1.38Z"/>
        <path class="cls-2" d="M11.8,9.32c-.08-.13-.03-.31.1-.38l.48-.28c.13-.08.31-.03.38.1.08.13.03.31-.1.38l-.48.28c-.13.08-.31.03-.38-.1Z"/>
        <path class="cls-2" d="M13.73,11.18c0,.15-.13.28-.28.28h-1.19c-.15,0-.28-.13-.28-.28s.13-.28.28-.28h1.19c.15,0,.28.13.28.28Z"/>
        <path class="cls-2" d="M4.89,11.46h-1.19c-.15,0-.28-.13-.28-.28s.13-.28.28-.28h1.19c.15,0,.28.13.28.28s-.13.28-.28.28Z"/>
        <path class="cls-2" d="M5.36,13.04c.08.13.03.31-.1.38l-.48.28c-.13.08-.31.03-.38-.1-.08-.13-.03-.31.1-.38l.48-.28c.13-.08.31-.03.38.1Z"/>
        <path class="cls-2" d="M5.36,9.32c-.08.13-.25.18-.38.1l-.48-.28c-.13-.08-.18-.25-.1-.38.08-.13.25-.18.38-.1l.48.28c.13.08.18.25.1.38Z"/>
        <path class="cls-2" d="M6.82,14.78l-.28.48c-.08.13-.25.18-.38.1-.13-.08-.18-.25-.1-.38l.28-.48c.08-.13.25-.18.38-.1.13.08.18.25.1.38Z"/>
        <path class="cls-2" d="M6.82,7.57c.08.13.03.31-.1.38-.13.08-.31.03-.38-.1l-.28-.48c-.08-.13-.03-.31.1-.38.13-.08.31-.03.38.1l.28.48Z"/>
        <path class="cls-2" d="M8.3,7.49v-1.19c0-.15.13-.28.28-.28s.28.13.28.28v1.19c0,.15-.13.28-.28.28s-.28-.13-.28-.28Z"/>
        <path class="cls-2" d="M8.86,14.86v1.19c0,.15-.13.28-.28.28s-.28-.13-.28-.28v-1.19c0-.15.13-.28.28-.28s.28.13.28.28Z"/>
        <path class="cls-2" d="M10.82,13.02l-1.58-1.58c.03-.08.05-.17.05-.26,0-.29-.18-.54-.43-.65v-1.8c0-.15-.13-.28-.28-.28s-.28.13-.28.28v1.8c-.25.11-.43.36-.43.65,0,.39.32.71.71.71.09,0,.18-.02.26-.05l1.58,1.58c.11.11.29.11.4,0,.11-.11.11-.29,0-.4ZM8.58,11.33c-.08,0-.15-.07-.15-.15s.07-.15.15-.15.15.07.15.15-.07.15-.15.15Z"/>
        <path class="cls-2" d="M11.1,14.98c.08.13.03.31-.1.38-.13.08-.31.03-.38-.1l-.28-.48c-.08-.13-.03-.31.1-.38.13-.08.31-.03.38.1l.28.48Z"/>
        <path class="cls-2" d="M11.1,7.37l-.28.48c-.08.13-.25.18-.38.1-.13-.08-.18-.25-.1-.38l.28-.48c.08-.13.25-.18.38-.1.13.08.18.25.1.38Z"/>
        <path class="cls-2" d="M8.58,5.46c-3.15,0-5.71,2.56-5.71,5.72s2.56,5.71,5.71,5.71,5.72-2.56,5.72-5.71-2.56-5.72-5.72-5.72ZM8.58,16.33c-2.85,0-5.15-2.31-5.15-5.15s2.31-5.16,5.15-5.16,5.16,2.31,5.16,5.16-2.31,5.15-5.16,5.15Z"/>
        <path class="cls-2" d="M12.76,13.59c-.08.13-.25.18-.38.1l-.48-.28c-.13-.08-.18-.25-.1-.38.08-.13.25-.18.38-.1l.48.28c.13.08.18.25.1.38Z"/>
        <path class="cls-2" d="M11.8,9.32c-.08-.13-.03-.31.1-.38l.48-.28c.13-.08.31-.03.38.1.08.13.03.31-.1.38l-.48.28c-.13.08-.31.03-.38-.1Z"/>
        <path class="cls-2" d="M13.73,11.18c0,.15-.13.28-.28.28h-1.19c-.15,0-.28-.13-.28-.28s.13-.28.28-.28h1.19c.15,0,.28.13.28.28Z"/>
        <path class="cls-2" d="M4.89,11.46h-1.19c-.15,0-.28-.13-.28-.28s.13-.28.28-.28h1.19c.15,0,.28.13.28.28s-.13.28-.28.28Z"/>
        <path class="cls-2" d="M5.36,13.04c.08.13.03.31-.1.38l-.48.28c-.13.08-.31.03-.38-.1-.08-.13-.03-.31.1-.38l.48-.28c.13-.08.31-.03.38.1Z"/>
        <path class="cls-2" d="M5.36,9.32c-.08.13-.25.18-.38.1l-.48-.28c-.13-.08-.18-.25-.1-.38.08-.13.25-.18.38-.1l.48.28c.13.08.18.25.1.38Z"/>
        <path class="cls-2" d="M6.82,14.78l-.28.48c-.08.13-.25.18-.38.1-.13-.08-.18-.25-.1-.38l.28-.48c.08-.13.25-.18.38-.1.13.08.18.25.1.38Z"/>
        <path class="cls-2" d="M6.82,7.57c.08.13.03.31-.1.38-.13.08-.31.03-.38-.1l-.28-.48c-.08-.13-.03-.31.1-.38.13-.08.31-.03.38.1l.28.48Z"/>
        <path class="cls-2" d="M8.3,7.49v-1.19c0-.15.13-.28.28-.28s.28.13.28.28v1.19c0,.15-.13.28-.28.28s-.28-.13-.28-.28Z"/>
        <path class="cls-2" d="M8.86,14.86v1.19c0,.15-.13.28-.28.28s-.28-.13-.28-.28v-1.19c0-.15.13-.28.28-.28s.28.13.28.28Z"/>
        <path class="cls-2" d="M10.82,13.02l-1.58-1.58c.03-.08.05-.17.05-.26,0-.29-.18-.54-.43-.65v-1.8c0-.15-.13-.28-.28-.28s-.28.13-.28.28v1.8c-.25.11-.43.36-.43.65,0,.39.32.71.71.71.09,0,.18-.02.26-.05l1.58,1.58c.11.11.29.11.4,0,.11-.11.11-.29,0-.4ZM8.58,11.33c-.08,0-.15-.07-.15-.15s.07-.15.15-.15.15.07.15.15-.07.15-.15.15Z"/>
        <path class="cls-2" d="M11.1,14.98c.08.13.03.31-.1.38-.13.08-.31.03-.38-.1l-.28-.48c-.08-.13-.03-.31.1-.38.13-.08.31-.03.38.1l.28.48Z"/>
        <path class="cls-2" d="M11.1,7.37l-.28.48c-.08.13-.25.18-.38.1-.13-.08-.18-.25-.1-.38l.28-.48c.08-.13.25-.18.38-.1.13.08.18.25.1.38Z"/>
        <path class="cls-2" d="M12.76,13.59c-.08.13-.25.18-.38.1l-.48-.28c-.13-.08-.18-.25-.1-.38.08-.13.25-.18.38-.1l.48.28c.13.08.18.25.1.38Z"/>
        <path class="cls-2" d="M11.8,9.32c-.08-.13-.03-.31.1-.38l.48-.28c.13-.08.31-.03.38.1.08.13.03.31-.1.38l-.48.28c-.13.08-.31.03-.38-.1Z"/>
        <path class="cls-2" d="M13.73,11.18c0,.15-.13.28-.28.28h-1.19c-.15,0-.28-.13-.28-.28s.13-.28.28-.28h1.19c.15,0,.28.13.28.28Z"/>
        <path class="cls-2" d="M10.82,13.02l-1.58-1.58c.03-.08.05-.17.05-.26,0-.29-.18-.54-.43-.65v-1.8c0-.15-.13-.28-.28-.28s-.28.13-.28.28v1.8c-.25.11-.43.36-.43.65,0,.39.32.71.71.71.09,0,.18-.02.26-.05l1.58,1.58c.11.11.29.11.4,0,.11-.11.11-.29,0-.4ZM8.58,11.33c-.08,0-.15-.07-.15-.15s.07-.15.15-.15.15.07.15.15-.07.15-.15.15Z"/>
        <path class="cls-2" d="M5.36,9.32c-.08.13-.25.18-.38.1l-.48-.28c-.13-.08-.18-.25-.1-.38.08-.13.25-.18.38-.1l.48.28c.13.08.18.25.1.38Z"/>
        <path class="cls-2" d="M6.72,7.96c-.13.08-.31.03-.38-.1l-.28-.48c-.08-.13-.03-.31.1-.38.13-.08.31-.03.38.1l.28.48c.08.13.03.31-.1.38Z"/>
        <path class="cls-2" d="M8.86,14.86v1.19c0,.15-.13.28-.28.28s-.28-.13-.28-.28v-1.19c0-.15.13-.28.28-.28s.28.13.28.28Z"/>
        <path class="cls-2" d="M5.25,13.42l-.48.28c-.13.08-.31.03-.38-.1-.08-.13-.03-.31.1-.38l.48-.28c.13-.08.31-.03.38.1.08.13.03.31-.1.38Z"/>
        <path class="cls-2" d="M5.17,11.18c0,.15-.13.28-.28.28h-1.19c-.15,0-.28-.13-.28-.28s.13-.28.28-.28h1.19c.15,0,.28.13.28.28Z"/>
        <path class="cls-2" d="M6.82,14.78l-.28.48c-.08.13-.25.18-.38.1-.13-.08-.18-.25-.1-.38l.28-.48c.08-.13.25-.18.38-.1.13.08.18.25.1.38Z"/>
        <path class="cls-2" d="M12.66,9.14l-.48.28c-.13.08-.31.03-.38-.1-.08-.13-.03-.31.1-.38l.48-.28c.13-.08.31-.03.38.1.08.13.03.31-.1.38Z"/>
        <path class="cls-2" d="M8.86,6.3v1.19c0,.15-.13.28-.28.28s-.28-.13-.28-.28v-1.19c0-.15.13-.28.28-.28s.28.13.28.28Z"/>
        <path class="cls-2" d="M11.1,7.37l-.28.48c-.08.13-.25.18-.38.1-.13-.08-.18-.25-.1-.38l.28-.48c.08-.13.25-.18.38-.1.13.08.18.25.1.38Z"/>
        <path class="cls-2" d="M10.99,15.36c-.13.08-.31.03-.38-.1l-.28-.48c-.08-.13-.03-.31.1-.38.13-.08.31-.03.38.1l.28.48c.08.13.03.31-.1.38Z"/>
        <path class="cls-2" d="M13.73,11.18c0,.15-.13.28-.28.28h-1.19c-.15,0-.28-.13-.28-.28s.13-.28.28-.28h1.19c.15,0,.28.13.28.28Z"/>
        <path class="cls-2" d="M12.76,13.59c-.08.13-.25.18-.38.1l-.48-.28c-.13-.08-.18-.25-.1-.38.08-.13.25-.18.38-.1l.48.28c.13.08.18.25.1.38Z"/>
      </g>
      <g>
        <path class="cls-1" d="M5.97.63l-2.17,2.08h-.24v-.63L5.73,0h.24v.63ZM6.03,2.08v.62h-2.46v-.62h2.46ZM5.97,0v.62h-2.33v-.62h2.33ZM4.51,1.92v.23h-.12v-.23h.12ZM5.16.55v.23h-.12v-.23h.12Z"/>
        <path class="cls-1" d="M8.09,2.55c-.18.14-.44.2-.75.2-.26,0-.47-.05-.64-.14-.17-.09-.29-.22-.37-.37-.08-.16-.12-.34-.12-.54,0-.3.09-.55.28-.74s.47-.28.85-.28c.26,0,.47.04.64.13.17.09.3.21.38.36s.12.33.12.52v.1h-.64s0-.05,0-.09c0-.09-.02-.18-.06-.26-.04-.08-.09-.14-.17-.19s-.17-.07-.28-.07c-.16,0-.28.05-.37.15-.08.1-.12.22-.12.36,0,.09.02.18.05.25.03.07.09.13.16.17.07.04.17.06.28.06.1,0,.18-.02.25-.05s.13-.08.17-.14h.68c-.05.23-.17.41-.36.55ZM8.25,1.41v.38h-1.76v-.38h1.76Z"/>
        <path class="cls-1" d="M9.31.73v1.98h-.61V.73h.61ZM10.49,1.29h-.68c-.14,0-.26.04-.36.12-.1.08-.15.17-.15.29h-.12c0-.18.03-.34.1-.49.07-.15.17-.26.3-.35.13-.09.28-.13.45-.13h.45v.56ZM9.41,1.09v.16h-.19v-.16h.19Z"/>
        <path class="cls-1" d="M12.4.82c.17.09.3.21.38.36.08.15.12.33.12.52,0,.31-.09.57-.28.76-.19.19-.48.29-.86.29-.26,0-.48-.05-.65-.14-.17-.09-.3-.22-.38-.37-.08-.16-.12-.34-.12-.54,0-.3.09-.55.28-.73.19-.19.48-.28.86-.28.26,0,.48.04.65.13ZM12.13,2.06c.08-.09.12-.21.12-.35,0-.09-.02-.17-.05-.24-.04-.07-.09-.12-.17-.16-.07-.04-.17-.06-.29-.06-.17,0-.3.04-.38.13s-.13.2-.13.33c0,.09.02.18.05.25.04.07.09.13.17.17s.17.06.29.06c.17,0,.3-.04.38-.13Z"/>
      </g>
    </g>
  </g>
</svg>