<?xml version="1.0" encoding="UTF-8"?>
<svg id="Layer_2" data-name="Layer 2" xmlns="http://www.w3.org/2000/svg" viewBox="0 0 17.01 22.55">
  <defs>
    <style>
      .cls-1 {
        fill: #fff;
      }
    </style>
  </defs>
  <g id="Layer_1-2" data-name="Layer 1">
    <g id="Error">
      <path class="cls-1" d="M9.49,22.15H1.98c-1.09,0-1.98-.89-1.98-1.98V1.98C0,.89.89,0,1.98,0h7.25c.52,0,1.03.21,1.4.58l3.82,3.82c.37.37.58.88.58,1.4v8.44c0,.22-.18.4-.4.4s-.4-.18-.4-.4V5.8c0-.31-.13-.62-.35-.84l-3.82-3.82c-.22-.22-.52-.35-.84-.35H1.98c-.66,0-1.19.53-1.19,1.19v18.2c0,.66.53,1.19,1.19,1.19h7.52c.22,0,.4.18.4.4s-.18.4-.4.4Z"/>
      <path class="cls-1" d="M12.66,5.93h-1.58c-1.09,0-1.98-.89-1.98-1.98v-1.58c0-.22.18-.4.4-.4s.4.18.4.4v1.58c0,.66.53,1.19,1.19,1.19h1.58c.22,0,.4.18.4.4s-.18.4-.4.4Z"/>
      <path class="cls-1" d="M7.52,4.35H3.16c-.22,0-.4-.18-.4-.4s.18-.4.4-.4h4.35c.22,0,.4.18.4.4s-.18.4-.4.4Z"/>
      <path class="cls-1" d="M8.7,7.12H3.16c-.22,0-.4-.18-.4-.4s.18-.4.4-.4h5.54c.22,0,.4.18.4.4s-.18.4-.4.4Z"/>
      <path class="cls-1" d="M11.87,9.89H3.16c-.22,0-.4-.18-.4-.4s.18-.4.4-.4h8.7c.22,0,.4.18.4.4s-.18.4-.4.4Z"/>
      <path class="cls-1" d="M11.87,12.66H3.16c-.22,0-.4-.18-.4-.4s.18-.4.4-.4h8.7c.22,0,.4.18.4.4s-.18.4-.4.4Z"/>
      <path class="cls-1" d="M10.68,15.43H3.16c-.22,0-.4-.18-.4-.4s.18-.4.4-.4h7.52c.22,0,.4.18.4.4s-.18.4-.4.4Z"/>
      <path class="cls-1" d="M8.7,18.2H3.16c-.22,0-.4-.18-.4-.4s.18-.4.4-.4h5.54c.22,0,.4.18.4.4s-.18.4-.4.4Z"/>
      <g>
        <path class="cls-1" d="M13.65,22.55c-1.86,0-3.36-1.51-3.36-3.36s1.51-3.36,3.36-3.36,3.36,1.51,3.36,3.36h0c0,1.86-1.51,3.36-3.36,3.36ZM13.65,16.61c-1.42,0-2.57,1.15-2.57,2.57s1.15,2.57,2.57,2.57,2.57-1.15,2.57-2.57c0-1.42-1.15-2.57-2.57-2.57Z"/>
        <path class="cls-1" d="M12.66,20.57c-.11,0-.21-.04-.28-.11-.16-.15-.16-.4,0-.56,0,0,0,0,0,0l1.98-1.98c.16-.16.41-.16.56,0s.16.41,0,.56l-1.98,1.98c-.07.07-.18.12-.28.11Z"/>
        <path class="cls-1" d="M14.64,20.57c-.11,0-.21-.04-.28-.11l-1.98-1.98c-.16-.16-.16-.41,0-.56s.41-.16.56,0l1.98,1.98c.16.15.16.4,0,.56,0,0,0,0,0,0-.07.07-.18.12-.28.11Z"/>
      </g>
    </g>
  </g>
</svg>