<?xml version="1.0" encoding="UTF-8"?>
<svg id="Layer_2" data-name="Layer 2" xmlns="http://www.w3.org/2000/svg" viewBox="0 0 24 22.87">
  <defs>
    <style>
      .cls-1 {
        fill: #fff;
        fill-rule: evenodd;
      }
    </style>
  </defs>
  <g id="Layer_1-2" data-name="Layer 1">
    <g>
      <path class="cls-1" d="M17.78,19.02c-.66,0-1.2.54-1.2,1.2s.54,1.2,1.2,1.2,1.2-.54,1.2-1.2-.54-1.2-1.2-1.2ZM17.78,20.63c-.23,0-.42-.19-.42-.42s.19-.42.42-.42.42.19.42.42-.19.42-.42.42Z"/>
      <path class="cls-1" d="M13.48,7.67c-.47-.46-1.22-.46-1.68,0h0s-2.37,2.39-2.37,2.39l-.94-.94c-.47-.47-1.22-.47-1.69,0h0c-.47.47-.46,1.22,0,1.69l1.78,1.79c.47.46,1.22.46,1.69,0,1.08-1.08,2.14-2.16,3.21-3.24h0c.46-.47.46-1.22,0-1.68ZM12.93,8.81c-1.07,1.08-2.13,2.17-3.21,3.24-.16.16-.43.16-.59,0l-1.78-1.79c-.16-.16-.16-.43,0-.59.16-.16.43-.16.59,0l1.21,1.21c.07.07.17.11.27.11.1,0,.2-.04.27-.11l2.64-2.67c.16-.16.43-.16.59,0,.16.16.16.43,0,.59ZM13.48,7.67c-.47-.46-1.22-.46-1.68,0h0s-2.37,2.39-2.37,2.39l-.94-.94c-.47-.47-1.22-.47-1.69,0h0c-.47.47-.46,1.22,0,1.69l1.78,1.79c.47.46,1.22.46,1.69,0,1.08-1.08,2.14-2.16,3.21-3.24h0c.46-.47.46-1.22,0-1.68ZM12.93,8.81c-1.07,1.08-2.13,2.17-3.21,3.24-.16.16-.43.16-.59,0l-1.78-1.79c-.16-.16-.16-.43,0-.59.16-.16.43-.16.59,0l1.21,1.21c.07.07.17.11.27.11.1,0,.2-.04.27-.11l2.64-2.67c.16-.16.43-.16.59,0,.16.16.16.43,0,.59ZM13.48,7.67c-.47-.46-1.22-.46-1.68,0h0s-2.37,2.39-2.37,2.39l-.94-.94c-.47-.47-1.22-.47-1.69,0h0c-.47.47-.46,1.22,0,1.69l1.78,1.79c.47.46,1.22.46,1.69,0,1.08-1.08,2.14-2.16,3.21-3.24h0c.46-.47.46-1.22,0-1.68ZM12.93,8.81c-1.07,1.08-2.13,2.17-3.21,3.24-.16.16-.43.16-.59,0l-1.78-1.79c-.16-.16-.16-.43,0-.59.16-.16.43-.16.59,0l1.21,1.21c.07.07.17.11.27.11.1,0,.2-.04.27-.11l2.64-2.67c.16-.16.43-.16.59,0,.16.16.16.43,0,.59ZM13.48,7.67c-.47-.46-1.22-.46-1.68,0h0s-2.37,2.39-2.37,2.39l-.94-.94c-.47-.47-1.22-.47-1.69,0h0c-.47.47-.46,1.22,0,1.69l1.78,1.79c.47.46,1.22.46,1.69,0,1.08-1.08,2.14-2.16,3.21-3.24h0c.46-.47.46-1.22,0-1.68ZM12.93,8.81c-1.07,1.08-2.13,2.17-3.21,3.24-.16.16-.43.16-.59,0l-1.78-1.79c-.16-.16-.16-.43,0-.59.16-.16.43-.16.59,0l1.21,1.21c.07.07.17.11.27.11.1,0,.2-.04.27-.11l2.64-2.67c.16-.16.43-.16.59,0,.16.16.16.43,0,.59ZM20.28,10.95v-2.13c0-.16-.1-.3-.25-.36l-1.43-.55c-.2-.76-.5-1.5-.9-2.18l.62-1.4c.06-.15.03-.32-.08-.43l-1.86-1.86c-.11-.11-.28-.15-.43-.08l-1.4.62c-.68-.4-1.41-.7-2.17-.9l-.55-1.43c-.06-.15-.2-.25-.36-.25h-2.64c-.16,0-.3.1-.36.25l-.55,1.43c-.76.2-1.49.5-2.17.9l-1.4-.62c-.15-.06-.32-.03-.43.08l-1.87,1.86c-.11.11-.14.28-.08.43l.62,1.4c-.4.68-.7,1.41-.9,2.18l-1.43.55c-.15.06-.25.2-.25.36v2.64c0,.16.1.3.25.36l1.43.55c.2.76.51,1.49.9,2.17l-.62,1.4c-.06.15-.03.32.08.43l1.87,1.87c.11.11.28.14.43.08l1.4-.62c.68.4,1.41.7,2.18.9l.55,1.43c.06.15.2.25.36.25h2.64c.16,0,.3-.1.36-.25l.3-.78c1.02,2.2,3.28,3.71,5.87,3.62,3.27-.11,5.92-2.78,6.01-6.05.07-2.61-1.48-4.89-3.72-5.87ZM11.72,18.13l-.53,1.37h-2.11l-.53-1.37c-.05-.12-.15-.21-.27-.24-.82-.2-1.61-.52-2.33-.96-.11-.07-.24-.08-.36-.02l-1.34.59-1.49-1.49.6-1.34c.05-.12.04-.25-.02-.36-.44-.72-.77-1.5-.97-2.32-.03-.12-.12-.22-.24-.27l-1.37-.53v-2.11l1.37-.53c.12-.05.21-.15.24-.27.2-.82.52-1.61.97-2.33.07-.11.08-.24.02-.36l-.6-1.34,1.49-1.49,1.34.6c.12.05.25.04.36-.02.72-.44,1.5-.77,2.32-.96.12-.03.23-.12.27-.24l.53-1.37h2.11l.53,1.37c.05.12.15.21.27.24.82.2,1.6.52,2.32.96.11.07.24.08.36.02l1.34-.6,1.49,1.49-.59,1.34c-.05.12-.04.25.02.36.44.72.77,1.5.96,2.33.03.12.12.23.24.27l1.37.53v1.58c-.55-.16-1.13-.24-1.73-.24-.64,0-1.26.1-1.85.28.02-.19.03-.37.03-.56,0-3.2-2.61-5.82-5.82-5.82s-5.96,2.76-5.81,6.08c.13,3.04,2.62,5.48,5.66,5.55.56.01,1.1-.05,1.62-.19-.04.29-.06.58-.06.88,0,.51.06,1,.18,1.47,0,0,0,.01,0,.02ZM11.8,14.9c-.52.18-1.08.28-1.66.28-2.84,0-5.15-2.37-5.04-5.24.1-2.62,2.22-4.74,4.84-4.84,2.87-.11,5.24,2.19,5.24,5.04,0,.3-.03.6-.08.89-1.58.76-2.8,2.16-3.3,3.87ZM15.76,18.11l-2.1,2.1c-.88-1.01-1.39-2.35-1.33-3.8.12-2.81,2.39-5.08,5.2-5.21,1.46-.06,2.8.45,3.81,1.33l-1.54,1.54v1.11s2.09-2.1,2.09-2.1c.83.96,1.34,2.21,1.34,3.57,0,3-2.45,5.45-5.45,5.45-1.36,0-2.61-.5-3.57-1.34l1.56-1.64v-1.01ZM16.84,17.65c.13.38.47.67.88.69.02,0,.04,0,.06,0,.55,0,1-.44,1.02-.98h0s.04-1.23.04-1.23l.04-1.14.07-2.05c.01-.29-.08-.54-.28-.74h0c-.2-.21-.45-.31-.73-.31h-.32c-.29,0-.53.11-.73.31h0c-.2.21-.29.46-.29.74h0s.15,4.19.15,4.19c0,.11.02.26.06.42.01.04.02.07.03.11ZM17.5,16.38l-.13-3.46c0-.07.02-.13.07-.18.05-.05.11-.07.18-.07h.32c.07,0,.13.03.18.07.05.05.07.11.07.18h0s-.1,2.89-.1,2.89l-.04,1.14v.4c-.02.13-.13.24-.26.24-.1,0-.19-.06-.23-.15l-.05-1.04ZM13.48,9.36c.46-.47.46-1.22,0-1.68s-1.22-.46-1.68,0h0s-2.37,2.39-2.37,2.39l-.94-.94c-.47-.47-1.22-.47-1.69,0h0c-.47.47-.46,1.22,0,1.69l1.78,1.79c.47.46,1.22.46,1.69,0,1.08-1.08,2.14-2.16,3.21-3.24h0ZM12.93,8.81c-1.07,1.08-2.13,2.17-3.21,3.24-.16.16-.43.16-.59,0l-1.78-1.79c-.16-.16-.16-.43,0-.59.16-.16.43-.16.59,0l1.21,1.21c.07.07.17.11.27.11.1,0,.2-.04.27-.11l2.64-2.67c.16-.16.43-.16.59,0,.16.16.16.43,0,.59ZM13.48,7.67c-.47-.46-1.22-.46-1.68,0h0s-2.37,2.39-2.37,2.39l-.94-.94c-.47-.47-1.22-.47-1.69,0h0c-.47.47-.46,1.22,0,1.69l1.78,1.79c.47.46,1.22.46,1.69,0,1.08-1.08,2.14-2.16,3.21-3.24h0c.46-.47.46-1.22,0-1.68ZM12.93,8.81c-1.07,1.08-2.13,2.17-3.21,3.24-.16.16-.43.16-.59,0l-1.78-1.79c-.16-.16-.16-.43,0-.59.16-.16.43-.16.59,0l1.21,1.21c.07.07.17.11.27.11.1,0,.2-.04.27-.11l2.64-2.67c.16-.16.43-.16.59,0,.16.16.16.43,0,.59ZM13.48,7.67c-.47-.46-1.22-.46-1.68,0h0s-2.37,2.39-2.37,2.39l-.94-.94c-.47-.47-1.22-.47-1.69,0h0c-.47.47-.46,1.22,0,1.69l1.78,1.79c.47.46,1.22.46,1.69,0,1.08-1.08,2.14-2.16,3.21-3.24h0c.46-.47.46-1.22,0-1.68ZM12.93,8.81c-1.07,1.08-2.13,2.17-3.21,3.24-.16.16-.43.16-.59,0l-1.78-1.79c-.16-.16-.16-.43,0-.59.16-.16.43-.16.59,0l1.21,1.21c.07.07.17.11.27.11.1,0,.2-.04.27-.11l2.64-2.67c.16-.16.43-.16.59,0,.16.16.16.43,0,.59Z"/>
      <path class="cls-1" d="M13.48,7.67c-.47-.46-1.22-.46-1.68,0h0s-2.37,2.39-2.37,2.39l-.94-.94c-.47-.47-1.22-.47-1.69,0h0c-.47.47-.46,1.22,0,1.69l1.78,1.79c.47.46,1.22.46,1.69,0,1.08-1.08,2.14-2.16,3.21-3.24h0c.46-.47.46-1.22,0-1.68ZM12.93,8.81c-1.07,1.08-2.13,2.17-3.21,3.24-.16.16-.43.16-.59,0l-1.78-1.79c-.16-.16-.16-.43,0-.59.16-.16.43-.16.59,0l1.21,1.21c.07.07.17.11.27.11.1,0,.2-.04.27-.11l2.64-2.67c.16-.16.43-.16.59,0,.16.16.16.43,0,.59Z"/>
      <path class="cls-1" d="M13.48,7.67c-.47-.46-1.22-.46-1.68,0h0s-2.37,2.39-2.37,2.39l-.94-.94c-.47-.47-1.22-.47-1.69,0h0c-.47.47-.46,1.22,0,1.69l1.78,1.79c.47.46,1.22.46,1.69,0,1.08-1.08,2.14-2.16,3.21-3.24h0c.46-.47.46-1.22,0-1.68ZM12.93,8.81c-1.07,1.08-2.13,2.17-3.21,3.24-.16.16-.43.16-.59,0l-1.78-1.79c-.16-.16-.16-.43,0-.59.16-.16.43-.16.59,0l1.21,1.21c.07.07.17.11.27.11.1,0,.2-.04.27-.11l2.64-2.67c.16-.16.43-.16.59,0,.16.16.16.43,0,.59Z"/>
      <path class="cls-1" d="M17.78,19.02c-.66,0-1.2.54-1.2,1.2s.54,1.2,1.2,1.2,1.2-.54,1.2-1.2-.54-1.2-1.2-1.2ZM17.78,20.63c-.23,0-.42-.19-.42-.42s.19-.42.42-.42.42.19.42.42-.19.42-.42.42Z"/>
      <path class="cls-1" d="M17.78,19.02c-.66,0-1.2.54-1.2,1.2s.54,1.2,1.2,1.2,1.2-.54,1.2-1.2-.54-1.2-1.2-1.2ZM17.78,20.63c-.23,0-.42-.19-.42-.42s.19-.42.42-.42.42.19.42.42-.19.42-.42.42Z"/>
    </g>
  </g>
</svg>