<?xml version="1.0" encoding="UTF-8"?>
<svg id="Layer_2" data-name="Layer 2" xmlns="http://www.w3.org/2000/svg" viewBox="0 0 24 18.94">
  <defs>
    <style>
      .cls-1 {
        fill: #fff;
      }
    </style>
  </defs>
  <g id="Layer_1-2" data-name="Layer 1">
    <g>
      <path class="cls-1" d="M16.79.75c1.02,0,1.85.83,1.85,1.85s-.83,1.85-1.85,1.85H7.68c-1.02,0-1.85-.83-1.85-1.85s.83-1.85,1.85-1.85h9.11M16.79,0H7.68c-1.44,0-2.6,1.16-2.6,2.6h0c0,1.44,1.16,2.6,2.6,2.6h9.11c1.44,0,2.6-1.16,2.6-2.6h0c0-1.44-1.16-2.6-2.6-2.6h0Z"/>
      <path class="cls-1" d="M16.79,7.62c1.02,0,1.85.83,1.85,1.85s-.83,1.85-1.85,1.85H7.68c-1.02,0-1.85-.83-1.85-1.85s.83-1.85,1.85-1.85h9.11M16.79,6.87H7.68c-1.44,0-2.6,1.16-2.6,2.6s1.16,2.6,2.6,2.6h9.11c1.44,0,2.6-1.16,2.6-2.6s-1.16-2.6-2.6-2.6h0Z"/>
      <path class="cls-1" d="M16.79,14.49c1.02,0,1.85.83,1.85,1.85s-.83,1.85-1.85,1.85H7.68c-1.02,0-1.85-.83-1.85-1.85s.83-1.85,1.85-1.85h9.11M16.79,13.74H7.68c-1.44,0-2.6,1.16-2.6,2.6s1.16,2.6,2.6,2.6h9.11c1.44,0,2.6-1.16,2.6-2.6s-1.16-2.6-2.6-2.6h0Z"/>
      <g>
        <path class="cls-1" d="M21.78,9.29l-.09-.22c1.32-.57,2.17-1.92,2.07-3.28-.12-1.72-1.63-3.07-3.42-3.07v-.24c1.92,0,3.53,1.45,3.66,3.29.11,1.46-.8,2.91-2.21,3.51Z"/>
        <path class="cls-1" d="M20.33,9.47c.6-.4,1.32-1,1.72-1.56l-.14,1.19.65,1.01c-.61-.32-1.52-.55-2.23-.64Z"/>
      </g>
      <path class="cls-1" d="M.87,12.24l-.23-.08c.5-1.49,1.9-2.5,3.49-2.51v.24c-1.49,0-2.8.95-3.27,2.35Z"/>
      <path class="cls-1" d="M4.14,16.76c-1.76,0-3.32-1.27-3.62-2.95l.23-.04c.28,1.57,1.73,2.76,3.38,2.76v.24Z"/>
      <path class="cls-1" d="M.33,13.55h-.33l.48-.59h.32l-.47.59ZM.8,12.96h-.32l-.42-.52h.33l.41.52ZM.85,12.96h-.32l.41-.52h.33l-.42.52ZM1.34,13.55h-.33l-.47-.59h.32l.48.59ZM.69,12.78v.35h-.04v-.35h.04Z"/>
      <rect class="cls-1" x=".26" y="12.01" width=".91" height=".24"/>
      <rect class="cls-1" x=".26" y="13.74" width=".91" height=".24"/>
    </g>
  </g>
</svg>