<?xml version="1.0" encoding="UTF-8"?>
<svg id="Layer_2" data-name="Layer 2" xmlns="http://www.w3.org/2000/svg" viewBox="0 0 21.21 23.89">
  <defs>
    <style>
      .cls-1 {
        fill: #fff;
      }
    </style>
  </defs>
  <g id="Layer_1-2" data-name="Layer 1">
    <g>
      <path class="cls-1" d="M7.36,14.59c-.11.42-.17.85-.21,1.28H1.44c-.35,0-.64-.29-.64-.64h0c0-.36.29-.64.64-.64h5.92M8.44,13.81H1.44c-.79,0-1.42.64-1.42,1.42h0c0,.79.64,1.42,1.42,1.42h6.48c0-.06,0-.12,0-.18,0-.92.18-1.82.53-2.67h0Z"/>
      <path class="cls-1" d="M7.33,18.21c.1.44.24.87.41,1.28H1.44c-.35,0-.64-.29-.64-.64h0c0-.36.29-.64.64-.64h5.88M7.98,17.42H1.44c-.79,0-1.42.64-1.42,1.42h0c0,.79.64,1.42,1.42,1.42h7.58c-.55-.86-.91-1.83-1.05-2.85h0Z"/>
      <path class="cls-1" d="M1.42,21.82h0s0,0,0,0h7.81c.46.49.99.92,1.55,1.28H1.43s0,0,0,0c-.35,0-.64-.28-.64-.63,0-.17.06-.33.18-.46.12-.12.28-.19.45-.19h0M1.42,21.04s-.01,0-.02,0C.62,21.05,0,21.7,0,22.48c0,.78.65,1.4,1.42,1.4,0,0,.01,0,.02,0h10.45c.47,0,.91-.24,1.18-.63-1.35-.38-2.56-1.15-3.47-2.22H1.44s-.01,0-.02,0h0Z"/>
      <path class="cls-1" d="M14.95,11c3.02,0,5.48,2.46,5.48,5.48,0,3.02-2.46,5.48-5.48,5.48-3.02,0-5.48-2.46-5.48-5.48,0-3.02,2.46-5.48,5.48-5.48M14.95,10.22c-3.45,0-6.26,2.81-6.26,6.26,0,3.46,2.8,6.26,6.26,6.26,3.46,0,6.26-2.81,6.26-6.26,0-3.45-2.81-6.26-6.26-6.26h0Z"/>
      <path class="cls-1" d="M7.65.78v6.72h1.84l-2.88,3.53-2.88-3.53h1.84V.78h2.08M8.04,0h-2.87c-.21,0-.38.17-.38.39v6.33h-1.89c-.09,0-.18.03-.24.09-.17.13-.19.38-.05.54l3.71,4.55s.03.04.05.05c.07.06.16.09.25.09.11,0,.22-.05.3-.14l3.71-4.55c.06-.07.09-.15.09-.24,0-.21-.17-.39-.39-.39h-1.89V.39h0c0-.21-.17-.39-.39-.39h0Z"/>
      <g>
        <path class="cls-1" d="M12.9,15.68l-2.05,1.96h-.23v-.6l2.05-1.96h.23v.6ZM12.96,17.05v.59h-2.32v-.59h2.32ZM12.9,15.08v.59h-2.2v-.59h2.2ZM11.52,16.9v.22h-.11v-.22h.11ZM12.13,15.61v.22h-.11v-.22h.11Z"/>
        <path class="cls-1" d="M14.9,17.49c-.17.13-.41.19-.71.19-.24,0-.44-.04-.6-.13-.16-.09-.28-.2-.35-.35-.07-.15-.11-.32-.11-.51,0-.29.09-.52.26-.69s.44-.26.8-.26c.24,0,.45.04.61.13.16.08.28.2.36.34.08.14.11.31.11.49v.09h-.61s0-.04,0-.08c0-.09-.02-.17-.05-.24-.03-.07-.09-.13-.16-.18-.07-.04-.16-.07-.26-.07-.15,0-.27.05-.35.14-.08.1-.12.21-.12.34,0,.09.02.17.05.23.03.07.08.12.15.16.07.04.16.06.26.06.09,0,.17-.02.24-.05.07-.03.12-.08.16-.13h.65c-.05.22-.16.39-.34.52ZM15.05,16.42v.36h-1.66v-.36h1.66Z"/>
        <path class="cls-1" d="M16.06,15.77v1.87h-.57v-1.87h.57ZM17.17,16.3h-.64c-.13,0-.24.04-.34.11s-.14.17-.14.27h-.11c0-.17.03-.32.1-.46.07-.14.16-.25.28-.33.12-.08.26-.12.42-.12h.42v.53ZM16.15,16.12v.15h-.18v-.15h.18Z"/>
        <path class="cls-1" d="M18.97,15.85c.16.08.28.2.36.34.08.14.11.31.11.5,0,.3-.09.54-.27.72-.18.18-.45.27-.81.27-.25,0-.45-.04-.61-.13-.16-.09-.28-.2-.36-.35s-.11-.32-.11-.51c0-.28.09-.52.27-.69.18-.18.45-.27.81-.27.25,0,.45.04.61.12ZM18.72,17.02c.08-.08.12-.19.12-.33,0-.08-.02-.16-.05-.22s-.09-.12-.16-.15c-.07-.04-.16-.06-.27-.06-.16,0-.28.04-.36.12-.08.08-.12.18-.12.31,0,.09.02.17.05.23.03.07.09.12.16.16.07.04.16.06.27.06.16,0,.28-.04.36-.13Z"/>
      </g>
    </g>
  </g>
</svg>